<svg width="120" height="120" viewBox="0 0 120 120" fill="none" xmlns="http://www.w3.org/2000/svg">
  <circle cx="60" cy="60" r="50" stroke="#6366f1" stroke-width="2.5" opacity="0.3"/>
  <circle cx="60" cy="60" r="38" stroke="#6366f1" stroke-width="1.5" opacity="0.15" stroke-dasharray="3 5"/>
  <line x1="60" y1="16" x2="98" y2="78" stroke="#6366f1" stroke-width="1.2" opacity="0.25"/>
  <line x1="98" y1="42" x2="22" y2="78" stroke="#6366f1" stroke-width="1.2" opacity="0.25"/>
  <line x1="22" y1="42" x2="98" y2="42" stroke="#818cf8" stroke-width="1.2" opacity="0.2"/>
  <line x1="60" y1="104" x2="22" y2="42" stroke="#818cf8" stroke-width="1.2" opacity="0.2"/>
  <line x1="60" y1="16" x2="22" y2="78" stroke="#4f46e5" stroke-width="1" opacity="0.15"/>
  <line x1="98" y1="42" x2="60" y2="104" stroke="#4f46e5" stroke-width="1" opacity="0.15"/>
  <circle cx="60" cy="16" r="7" fill="#818cf8"/>
  <circle cx="98" cy="42" r="6" fill="#6366f1"/>
  <circle cx="98" cy="78" r="6" fill="#6366f1"/>
  <circle cx="60" cy="104" r="7" fill="#818cf8"/>
  <circle cx="22" cy="78" r="6" fill="#6366f1"/>
  <circle cx="22" cy="42" r="6" fill="#6366f1"/>
  <circle cx="78" cy="28" r="3" fill="#4f46e5" opacity="0.5"/>
  <circle cx="82" cy="60" r="3" fill="#4f46e5" opacity="0.5"/>
  <circle cx="38" cy="92" r="3" fill="#4f46e5" opacity="0.5"/>
  <circle cx="60" cy="60" r="10" fill="#6366f1" opacity="0.5"/>
  <circle cx="60" cy="60" r="5" fill="#a5b4fc"/>
  <circle cx="60" cy="60" r="2" fill="#fff" opacity="0.8"/>
</svg>
